<svg width="22" height="32" viewBox="0 0 22 32" fill="none" xmlns="http://www.w3.org/2000/svg">
<mask id="mask0_1_95" style="mask-type:alpha" maskUnits="userSpaceOnUse" x="0" y="0" width="22" height="32">
<path fill-rule="evenodd" clip-rule="evenodd" d="M17.3616 12.449C18.0392 11.3148 18.4286 9.98861 18.4286 8.57143C18.4286 4.38984 15.0387 1 10.8571 1C6.67554 1 3.2857 4.38984 3.2857 8.57143C3.2857 9.98861 3.67506 11.3149 4.35264 12.449C6.16554 11.0905 8.41736 10.2857 10.8571 10.2857C13.2969 10.2857 15.5487 11.0905 17.3616 12.449ZM18.1412 13.0916C18.9572 11.7794 19.4286 10.2305 19.4286 8.57143C19.4286 3.83756 15.591 0 10.8571 0C6.12326 0 2.2857 3.83756 2.2857 8.57143C2.2857 10.2305 2.75703 11.7794 3.5731 13.0917C1.3786 15.0783 0 17.9496 0 21.1429C0 27.1391 4.86091 32 10.8571 32C16.8534 32 21.7143 27.1391 21.7143 21.1429C21.7143 17.9496 20.3357 15.0783 18.1412 13.0916ZM16.7927 13.2725C15.1416 12.0253 13.0858 11.2857 10.8571 11.2857C8.62851 11.2857 6.57263 12.0253 4.92155 13.2725C6.30845 15.0212 8.4518 16.1429 10.8571 16.1429C13.2625 16.1429 15.4058 15.0212 16.7927 13.2725ZM4.15478 13.915C5.72535 15.8823 8.14403 17.1429 10.8571 17.1429C13.5702 17.1429 15.9889 15.8823 17.5595 13.915C19.5 15.7152 20.7143 18.2872 20.7143 21.1429C20.7143 26.5868 16.3011 31 10.8571 31C5.41319 31 1 26.5868 1 21.1429C1 18.2872 2.21433 15.7152 4.15478 13.915ZM10.8571 9.28571C11.8828 9.28571 12.7143 8.45424 12.7143 7.42857C12.7143 6.4029 11.8828 5.57142 10.8571 5.57142C9.83147 5.57142 9 6.4029 9 7.42857C9 8.45424 9.83147 9.28571 10.8571 9.28571ZM10.8571 10.2857C12.4351 10.2857 13.7143 9.00653 13.7143 7.42857C13.7143 5.85061 12.4351 4.57142 10.8571 4.57142C9.27919 4.57142 8 5.85061 8 7.42857C8 9.00653 9.27919 10.2857 10.8571 10.2857Z" fill="#1DA0FF"/>
</mask>
<g mask="url(#mask0_1_95)">
<circle cx="10.8571" cy="8.57143" r="8.07143" fill="#1DA0FF" stroke="#1DA0FF"/>
</g>
</svg>
